<svg id="visual" viewBox="0 0 900 600" width="900" height="600" xmlns="http://www.w3.org/2000/svg" xmlns:xlink="http://www.w3.org/1999/xlink" version="1.1"><rect x="0" y="0" width="900" height="600" fill="#ffffff"></rect><path d="M0 501L13.7 491.3C27.3 481.7 54.7 462.3 82 451.3C109.3 440.3 136.7 437.7 163.8 450.8C191 464 218 493 245.2 500.8C272.3 508.7 299.7 495.3 327 485.5C354.3 475.7 381.7 469.3 409 462.5C436.3 455.7 463.7 448.3 491 454.2C518.3 460 545.7 479 573 491.5C600.3 504 627.7 510 654.8 508.3C682 506.7 709 497.3 736.2 490.2C763.3 483 790.7 478 818 472.3C845.3 466.7 872.7 460.3 886.3 457.2L900 454L900 601L886.3 601C872.7 601 845.3 601 818 601C790.7 601 763.3 601 736.2 601C709 601 682 601 654.8 601C627.7 601 600.3 601 573 601C545.7 601 518.3 601 491 601C463.7 601 436.3 601 409 601C381.7 601 354.3 601 327 601C299.7 601 272.3 601 245.2 601C218 601 191 601 163.8 601C136.7 601 109.3 601 82 601C54.7 601 27.3 601 13.7 601L0 601Z" fill="#41b883" stroke-linecap="round" stroke-linejoin="miter"></path></svg>